<?xml version="1.0" standalone="no"?>
<!DOCTYPE svg PUBLIC "-//W3C//DTD SVG 20010904//EN"
 "http://www.w3.org/TR/2001/REC-SVG-20010904/DTD/svg10.dtd">
<svg version="1.0" xmlns="http://www.w3.org/2000/svg"
 width="984.000000pt" height="984.000000pt" viewBox="0 0 984.000000 984.000000"
 preserveAspectRatio="xMidYMid meet">
<metadata>
Created by potrace 1.11, written by Peter Selinger 2001-2013
</metadata>
<g transform="translate(0.000000,984.000000) scale(0.100000,-0.100000)"
fill="#000000" stroke="none">
<path d="M4910 9672 c-19 -9 -47 -27 -62 -40 -24 -22 -118 -153 -118 -165 0
-3 -22 -42 -50 -87 -27 -45 -50 -83 -50 -86 0 -2 -12 -23 -27 -47 -15 -23 -32
-51 -38 -62 -15 -26 -212 -360 -236 -400 -11 -16 -22 -37 -26 -45 -3 -8 -18
-33 -32 -55 -14 -22 -31 -51 -39 -64 -42 -78 -198 -337 -207 -343 -5 -4 -7 -8
-3 -8 6 0 -52 -104 -72 -127 -5 -7 -10 -14 -10 -17 0 -2 -34 -62 -76 -132 -86
-145 -106 -179 -143 -244 -14 -25 -31 -51 -38 -58 -7 -7 -13 -18 -13 -23 0 -5
-15 -32 -33 -61 -19 -29 -37 -60 -40 -68 -4 -8 -18 -33 -32 -55 -14 -22 -30
-49 -36 -60 -5 -11 -15 -29 -22 -40 -72 -117 -147 -248 -147 -256 0 -5 -4 -9
-9 -9 -5 0 -11 -8 -14 -17 -8 -24 -40 -77 -49 -81 -5 -2 -8 -8 -8 -13 0 -8
-109 -197 -178 -307 -13 -20 -25 -45 -29 -54 -3 -10 -9 -18 -14 -18 -5 0 -9
-5 -9 -11 0 -5 -37 -72 -82 -147 -44 -75 -89 -151 -99 -169 -10 -17 -29 -49
-42 -70 -13 -21 -35 -58 -49 -83 -72 -128 -113 -195 -120 -198 -4 -2 -8 -8 -8
-12 0 -12 -113 -204 -122 -208 -4 -2 -8 -12 -8 -23 0 -10 -4 -19 -9 -19 -5 0
-14 -14 -21 -31 -7 -17 -18 -36 -24 -42 -14 -15 -53 -83 -72 -124 -8 -18 -19
-33 -25 -33 -5 0 -8 -4 -4 -9 3 -5 1 -12 -5 -16 -6 -4 -22 -27 -35 -53 -14
-26 -36 -65 -50 -87 -14 -22 -28 -47 -32 -55 -4 -8 -35 -61 -70 -118 -35 -57
-63 -105 -63 -108 0 -4 -68 -118 -98 -164 -9 -14 -17 -27 -17 -30 -1 -7 -58
-104 -65 -110 -3 -3 -11 -16 -17 -30 -7 -14 -24 -43 -37 -65 -14 -22 -35 -58
-46 -80 -12 -22 -25 -42 -29 -45 -3 -3 -12 -16 -18 -30 -7 -14 -24 -43 -37
-65 -14 -22 -31 -51 -39 -65 -7 -14 -37 -64 -65 -111 -29 -47 -52 -91 -52 -97
0 -6 -4 -12 -8 -14 -8 -3 -44 -63 -141 -233 -25 -44 -48 -82 -52 -85 -3 -3
-19 -30 -35 -60 -15 -30 -30 -57 -33 -60 -8 -7 -29 -41 -38 -60 -4 -8 -39 -69
-78 -135 -39 -66 -98 -165 -130 -220 -32 -55 -71 -122 -88 -150 -16 -27 -38
-63 -47 -80 -42 -72 -141 -241 -150 -255 -6 -8 -20 -34 -32 -58 -12 -23 -26
-42 -30 -42 -4 0 -8 -5 -8 -10 0 -6 -25 -52 -55 -102 -30 -50 -55 -94 -55 -97
0 -4 -7 -16 -15 -26 -23 -30 -85 -136 -85 -146 0 -5 -4 -9 -10 -9 -5 0 -10 -4
-10 -10 0 -5 -43 -82 -95 -171 -52 -88 -95 -165 -95 -170 0 -5 -4 -9 -10 -9
-5 0 -10 -7 -10 -15 0 -8 -5 -15 -12 -15 -6 0 -9 -3 -6 -6 4 -3 -4 -21 -17
-40 -13 -19 -30 -48 -37 -64 -7 -17 -16 -30 -20 -30 -5 0 -8 -5 -8 -10 0 -6
-12 -29 -26 -51 -14 -23 -37 -62 -51 -87 -15 -26 -34 -60 -43 -77 -62 -111
-71 -251 -26 -415 15 -58 30 -112 33 -120 4 -8 7 -19 8 -25 1 -5 3 -12 4 -15
2 -3 4 -12 6 -20 7 -36 67 -257 75 -280 6 -14 11 -34 13 -45 6 -29 18 -78 24
-95 4 -8 7 -22 8 -30 1 -8 4 -22 8 -30 3 -8 17 -57 31 -108 29 -107 52 -150
96 -175 35 -21 76 -19 200 8 41 9 86 18 100 20 14 2 48 9 75 15 28 5 64 12 82
15 18 3 65 12 105 20 40 9 89 18 108 21 19 3 43 7 52 10 10 3 30 8 45 10 16 3
83 16 151 30 68 13 138 26 155 29 18 3 39 8 47 10 21 6 80 17 110 20 14 1 34
5 45 8 11 4 35 9 54 12 19 3 37 7 40 9 3 2 28 7 55 10 27 4 52 9 56 11 4 2 29
7 56 11 27 3 52 8 55 10 4 2 24 6 44 10 21 3 47 8 59 10 11 3 34 8 51 11 111
20 194 121 254 308 12 39 25 77 28 85 4 8 7 17 8 20 1 3 11 39 24 80 12 41 28
91 36 110 14 35 62 182 69 210 8 32 106 335 123 380 3 8 7 20 8 25 2 6 38 119
81 250 43 132 79 242 80 245 0 3 4 12 7 20 3 8 14 42 23 75 9 33 21 66 28 74
6 8 9 15 7 15 -5 1 -4 7 110 357 54 168 99 308 99 312 0 3 5 18 12 34 6 15 12
33 13 38 2 6 26 82 56 170 29 88 54 165 55 170 1 6 27 88 59 184 31 95 58 178
60 185 1 6 7 22 12 36 6 14 9 28 6 33 -2 4 0 7 5 7 5 0 9 6 9 13 0 6 21 77 48
157 26 80 48 151 48 158 0 6 3 12 7 12 4 0 7 6 8 13 1 14 7 36 15 57 7 18 31
93 32 100 0 3 7 23 14 45 19 59 20 65 21 70 1 3 7 20 16 40 8 19 14 37 14 40
1 5 5 21 20 65 5 14 52 160 105 325 53 165 100 309 105 320 8 19 54 164 55
175 0 3 5 19 12 35 18 46 143 437 147 462 3 12 10 31 16 43 6 12 13 29 15 38
3 17 41 135 52 162 3 8 7 22 9 30 2 8 22 69 44 135 22 66 42 127 44 135 2 8
27 87 56 175 29 88 61 189 72 225 12 36 31 94 43 130 23 66 73 222 80 250 3 8
27 83 55 165 28 83 53 159 55 169 3 10 10 35 17 55 7 20 13 38 13 41 1 9 166
514 174 535 5 11 13 36 19 55 6 19 56 177 113 350 56 173 102 321 102 328 0 6
4 12 9 12 5 0 6 5 3 10 -3 6 -2 10 3 10 5 0 9 8 9 18 -1 9 18 76 42 147 57
173 54 158 55 260 1 78 -3 96 -24 135 -46 82 -116 109 -190 72z"/>
<path d="M8967 8514 c-2 -2 -102 -6 -222 -9 -215 -5 -231 -6 -257 -4 -7 0
-107 -2 -223 -6 -371 -10 -546 -15 -740 -20 -459 -11 -623 -15 -815 -20 -289
-8 -544 -14 -765 -20 -597 -15 -585 -14 -660 -53 -97 -52 -141 -116 -192 -277
-14 -44 -29 -84 -33 -90 -4 -5 -11 -26 -16 -45 -10 -43 -9 -42 -17 -60 -16
-37 -160 -466 -160 -477 0 -7 -4 -13 -9 -13 -5 0 -7 -4 -4 -8 3 -5 -1 -20 -9
-35 -8 -15 -11 -27 -8 -27 3 0 -1 -7 -8 -17 -8 -9 -13 -18 -11 -20 5 -5 -69
-226 -81 -240 -5 -7 -6 -13 -2 -13 4 0 3 -6 -2 -12 -6 -7 -11 -20 -11 -28 0
-8 -12 -46 -27 -85 -14 -38 -28 -77 -30 -85 -2 -8 -20 -62 -40 -120 -20 -58
-38 -112 -40 -120 -2 -8 -29 -86 -59 -172 -30 -87 -52 -158 -48 -158 4 0 2 -4
-3 -8 -6 -4 -19 -34 -28 -67 -10 -33 -22 -69 -27 -80 -9 -20 -60 -172 -65
-190 -1 -5 -5 -17 -8 -25 -9 -21 -117 -342 -122 -360 -2 -8 -31 -94 -65 -190
-34 -96 -63 -182 -65 -190 -2 -8 -22 -69 -45 -135 -23 -66 -43 -124 -44 -130
-6 -27 -30 -91 -39 -102 -5 -7 -7 -13 -3 -13 3 0 0 -15 -8 -34 -8 -19 -12 -37
-8 -40 3 -3 0 -6 -6 -6 -7 0 -12 -7 -12 -15 0 -9 -9 -41 -21 -73 -11 -31 -27
-77 -34 -102 -7 -25 -39 -117 -70 -205 -31 -88 -58 -167 -60 -175 -2 -8 -17
-55 -35 -105 -17 -49 -33 -97 -35 -105 -2 -8 -15 -45 -29 -82 -14 -38 -23 -68
-20 -68 2 0 -2 -13 -11 -30 -8 -16 -15 -31 -15 -32 1 -2 -1 -10 -4 -18 -3 -8
-35 -103 -71 -210 -37 -107 -100 -296 -141 -420 -41 -124 -79 -234 -84 -245
-9 -21 -61 -172 -65 -190 -1 -5 -7 -23 -14 -40 -7 -16 -13 -38 -14 -47 -1 -10
-4 -18 -7 -18 -4 0 -7 -6 -7 -12 0 -7 -17 -60 -38 -118 -20 -58 -38 -112 -40
-120 -2 -8 -4 -17 -5 -20 -1 -3 -2 -8 -1 -13 0 -4 -3 -7 -7 -7 -5 0 -9 -6 -10
-12 0 -7 -3 -24 -6 -37 -6 -24 2 -18 174 145 36 34 81 76 101 95 150 141 302
283 352 332 32 31 60 57 62 57 1 0 32 28 67 63 36 34 116 109 178 167 62 58
143 135 181 171 38 37 97 92 132 124 68 64 290 272 372 350 29 28 104 98 167
157 62 58 134 126 159 150 26 23 102 95 169 158 184 172 198 186 325 305 65
61 141 133 170 160 28 28 107 102 175 165 67 63 142 133 165 155 23 22 97 92
165 155 67 63 146 138 175 165 28 28 81 77 116 109 65 60 321 302 389 366 20
19 94 89 164 155 71 66 153 144 184 173 31 28 60 52 64 52 4 0 8 7 8 15 0 8 4
15 9 15 4 0 35 26 69 58 33 31 117 111 188 177 70 66 137 129 149 140 11 11
41 39 67 62 25 23 43 44 40 47 -3 3 -1 6 5 6 6 0 33 21 61 48 27 26 110 103
183 172 73 69 155 146 183 173 27 26 50 47 51 47 2 0 32 28 67 63 36 34 120
114 188 177 202 189 290 273 341 320 26 25 100 95 165 155 65 61 136 128 157
150 105 108 128 261 59 388 -54 100 -140 160 -250 175 -34 5 -63 7 -65 6z"/>
<path d="M5277 3544 c-1 -1 -27 -5 -57 -8 -101 -10 -171 -32 -261 -81 -88 -47
-118 -73 -419 -355 -21 -19 -86 -80 -145 -135 -59 -55 -126 -118 -149 -140
-23 -22 -91 -85 -151 -140 -59 -55 -125 -116 -145 -135 -63 -60 -263 -246
-295 -274 -16 -15 -59 -55 -96 -89 -36 -34 -114 -107 -173 -162 -59 -55 -134
-125 -166 -155 -32 -30 -104 -98 -161 -150 -157 -144 -302 -290 -295 -297 3
-3 1 -12 -5 -19 -6 -7 -13 -40 -16 -72 -12 -134 76 -259 202 -287 43 -10 307
-12 326 -3 9 4 19 4 23 1 10 -11 409 -10 424 0 7 6 12 6 12 0 0 -12 103 -10
112 2 5 7 8 7 8 0 0 -9 354 -14 385 -5 6 1 12 1 15 0 17 -7 417 -4 428 3 7 6
12 6 12 0 0 -12 103 -10 112 2 5 7 8 7 8 0 0 -12 489 -14 508 -2 6 5 12 4 12
0 0 -12 103 -10 112 2 5 7 8 7 8 0 0 -9 354 -14 385 -5 6 1 12 1 15 0 17 -7
417 -4 428 3 7 6 12 6 12 0 0 -12 103 -10 112 2 5 7 8 7 8 0 0 -9 354 -14 385
-5 6 1 12 1 15 0 17 -7 417 -4 428 3 7 6 12 6 12 0 0 -12 103 -10 112 2 5 7 8
7 8 0 0 -12 489 -14 508 -2 6 5 12 4 12 0 0 -12 103 -10 112 2 5 7 8 7 8 0 0
-9 354 -14 385 -5 6 1 12 1 15 0 17 -7 417 -4 428 3 7 6 12 6 12 0 0 -12 103
-10 112 2 5 7 8 7 8 0 0 -9 354 -14 385 -5 6 1 12 1 15 0 20 -8 280 -4 280 5
0 7 3 7 8 0 8 -12 157 -13 168 -2 4 4 0 7 -9 7 -10 0 -17 5 -17 10 0 6 -5 10
-11 10 -6 0 -48 23 -94 50 -46 28 -88 50 -94 50 -6 0 -11 5 -11 10 0 6 -5 10
-10 10 -6 0 -43 20 -83 44 -39 24 -90 53 -112 65 -22 12 -47 26 -55 31 -48 31
-173 100 -181 100 -5 0 -9 4 -9 8 0 4 -12 13 -27 19 -16 7 -35 17 -43 22 -16
11 -169 99 -239 139 -88 49 -146 83 -161 92 -8 6 -22 13 -30 17 -8 3 -35 20
-60 37 -25 17 -47 30 -50 30 -3 -1 -14 4 -25 11 -11 7 -101 58 -200 115 -99
57 -197 114 -217 126 -21 13 -40 24 -43 24 -3 0 -22 11 -43 23 -20 13 -57 35
-82 49 -67 37 -109 62 -168 97 -29 17 -57 31 -62 31 -4 0 -10 3 -12 8 -3 7
-38 27 -103 60 -16 9 -32 18 -35 21 -3 4 -16 12 -30 19 -14 7 -38 20 -55 31
-27 16 -55 33 -126 73 -13 7 -32 20 -43 28 -10 8 -19 13 -20 11 0 -3 -12 2
-26 11 -84 51 -132 78 -140 78 -6 0 -10 5 -10 12 0 6 -3 8 -7 5 -3 -4 -13 -1
-22 6 -9 8 -36 25 -61 38 -25 13 -48 29 -52 34 -4 6 -8 7 -8 3 0 -4 -16 3 -35
17 -20 13 -49 30 -65 37 -17 7 -30 16 -30 20 0 5 -4 8 -9 8 -8 0 -196 105
-251 139 -8 6 -37 22 -65 37 -27 14 -57 32 -65 39 -8 6 -28 19 -45 27 -48 23
-79 42 -87 53 -4 6 -8 6 -8 1 0 -5 -8 -2 -17 6 -10 8 -52 33 -93 57 -41 23
-82 46 -90 52 -8 5 -22 12 -30 16 -8 4 -71 40 -139 80 -67 40 -124 73 -126 73
-2 0 -37 20 -79 45 -42 24 -76 41 -76 37 0 -4 -4 -2 -8 4 -12 17 -117 57 -182
70 -52 10 -158 22 -163 18z"/>
</g>
</svg>
