<?xml version="1.0" encoding="utf-8"?>
<!-- Generator: Adobe Illustrator 22.0.1, SVG Export Plug-In . SVG Version: 6.00 Build 0)  -->
<svg version="1.1" id="Livello_1" xmlns="http://www.w3.org/2000/svg" xmlns:xlink="http://www.w3.org/1999/xlink" x="0px" y="0px"
	 viewBox="0 0 1690.9 542.8" style="enable-background:new 0 0 1690.9 542.8;" xml:space="preserve">
<style type="text/css">
	.st0{fill:#124564;}
	.st1{fill:#7C7D4D;}
	.st2{fill:#FAC66E;}
	.st3{fill:none;}
</style>
<g>
	<path class="st0" d="M1002.7,315.2l-54.1,166.9c-2.2,6.8-6.8,12-11.3,12.9l-83.6,16.3c-3.9,0.8-7.1-1.7-8.3-6.4L833,459.2
		c-1.4-5.3-0.2-12.3,3.1-17.9l234.8-399c9-15.3,22.3-6.2,16.6,11.4l-39.5,122"/>
</g>
<path class="st1" d="M1324.3,467.1l-341.4,0c-12.2,0.2-18.2-14.8-9.3-23.2l99.5-92.7c11.2-10.4,27.9-12.4,41.2-4.9L1324.3,467.1"/>
<path class="st2" d="M986.1,410.9l102.4-301.7c2.2-6.6,8.3-11.1,15.3-11.3l177.6-4.5c15.2-0.4,22.9,18.2,11.8,28.7L986.1,410.9"/>
<path class="st0" d="M321.2,318.1v161.6h-91.3v-42c-12.1,17.2-25.8,29.7-41,37.5c-15.2,7.8-33.6,11.8-55.4,11.8
	c-29.3,0-53.1-8.6-71.4-25.7c-18.3-17.1-27.4-39.3-27.4-66.6c0-33.2,11.4-57.6,34.3-73.1c22.8-15.5,58.7-23.3,107.6-23.3h53.3v-7.1
	c0-14.3-5.6-24.8-16.9-31.5c-11.3-6.7-28.9-10-52.8-10c-19.4,0-37.4,1.9-54.1,5.8c-16.7,3.9-32.2,9.7-46.5,17.4v-69
	c19.4-4.7,38.8-8.3,58.4-10.7c19.6-2.4,39.1-3.7,58.7-3.7c51.1,0,87.9,10.1,110.6,30.2C309.9,240,321.2,272.7,321.2,318.1z
	 M182.9,352.2c-18.9,0-33.1,3.2-42.6,9.6c-9.5,6.4-14.3,15.8-14.3,28.3c0,11.5,3.8,20.4,11.5,26.9c7.7,6.5,18.3,9.7,32,9.7
	c17,0,31.4-6.1,43-18.3c11.6-12.2,17.4-27.5,17.4-45.9v-10.4H182.9z"/>
<path class="st0" d="M458.2,237.9c12.5-16.5,26.3-28.7,41.5-36.5c15.2-7.8,32.6-11.8,52.3-11.8c34.9,0,63.5,13.9,86,41.6
	c22.4,27.7,33.6,63.4,33.6,107.1c0,43.7-11.2,79.3-33.6,107.1c-22.4,27.7-51.1,41.6-86,41.6c-19.7,0-37.2-3.9-52.3-11.8
	c-15.2-7.8-29-20-41.5-36.5v41h-90.5V86.2h90.5V237.9z M518.4,421.2c19.4,0,34.2-7.1,44.4-21.2c10.2-14.2,15.3-34.7,15.3-61.7
	c0-27-5.1-47.5-15.3-61.7c-10.2-14.2-25-21.2-44.4-21.2c-19.4,0-34.3,7.1-44.6,21.4c-10.4,14.2-15.5,34.8-15.5,61.6
	c0,26.8,5.2,47.3,15.5,61.6C484.2,414.1,499,421.2,518.4,421.2z"/>
<path class="st0" d="M708.1,86.2h90.5v73.8h-90.5V86.2z M708.1,196.5h90.5v283.2h-90.5V196.5z"/>
<g>
	<path class="st0" d="M1634.3,308.4V470H1543v-42c-12.1,17.2-25.8,29.7-41,37.5c-15.2,7.8-33.6,11.8-55.4,11.8
		c-29.3,0-53.1-8.6-71.4-25.7c-18.3-17.1-27.4-39.3-27.4-66.6c0-33.2,11.4-57.6,34.3-73.1c22.8-15.5,58.7-23.3,107.6-23.3h53.3v-7.1
		c0-14.3-5.6-24.8-16.9-31.5c-11.3-6.7-28.9-10-52.8-10c-19.4,0-37.4,1.9-54.1,5.8c-16.7,3.9-32.2,9.7-46.5,17.4v-69
		c19.4-4.7,38.8-8.3,58.4-10.7c19.6-2.4,39.1-3.7,58.7-3.7c51.1,0,87.9,10.1,110.6,30.2C1622.9,230.3,1634.3,263.1,1634.3,308.4z
		 M1496,342.5c-18.9,0-33.1,3.2-42.6,9.6c-9.5,6.4-14.3,15.8-14.3,28.3c0,11.5,3.8,20.4,11.5,26.9c7.7,6.5,18.3,9.7,32,9.7
		c17,0,31.4-6.1,43-18.3c11.6-12.2,17.4-27.5,17.4-45.9v-10.4H1496z"/>
</g>
<path class="st3" d="M-2.9,643.7"/>
</svg>
