<svg xmlns="http://www.w3.org/2000/svg" viewBox="649.448 2769.842 141.104 141.104"><defs><style>.a,.b,.f{fill:none;}.a,.b{stroke:#f7ca69;stroke-width:2px;}.a{opacity:0.3;}.b{opacity:0.5;}.c{fill:#fff;stroke:#727b83;}.d{fill:#244466;}.e{stroke:none;}</style></defs><g transform="translate(649.448 2769.842)"><g class="a" transform="translate(0)"><circle class="e" cx="70.552" cy="70.552" r="70.552"/><circle class="f" cx="70.552" cy="70.552" r="69.552"/></g><g class="b" transform="translate(29.706 29.706)"><circle class="e" cx="40.846" cy="40.846" r="40.846"/><circle class="f" cx="40.846" cy="40.846" r="39.846"/></g><g class="c" transform="translate(48.272 48.272)"><circle class="e" cx="22.28" cy="22.28" r="22.28"/><circle class="f" cx="22.28" cy="22.28" r="21.78"/></g><g transform="translate(64.611 64.611)"><path class="d" d="M1.782,1.782A5.394,5.394,0,0,1,5.941,0,5.394,5.394,0,0,1,10.1,1.782a5.394,5.394,0,0,1,1.782,4.159A5.394,5.394,0,0,1,10.1,10.1a5.394,5.394,0,0,1-4.159,1.782A5.394,5.394,0,0,1,1.782,10.1,5.929,5.929,0,0,1,0,5.941,5.394,5.394,0,0,1,1.782,1.782Zm4.951,8.912A2.433,2.433,0,0,0,8.219,9.8a4.325,4.325,0,0,0,.693-2.079,1.64,1.64,0,0,0-.5-1.188,1.743,1.743,0,0,0-1.287-.594h-.99a2.891,2.891,0,0,1-.891-.2.9.9,0,0,1-.3-.693.514.514,0,0,1,.2-.4.751.751,0,0,1,.4-.2.676.676,0,0,1,.5.3c.2.1.3.2.4.2a.6.6,0,0,0,.4-.1.6.6,0,0,0,.1-.4,1.576,1.576,0,0,0-.5-.99,4.1,4.1,0,0,0,.5-1.881.213.213,0,0,0-.2-.2,3.061,3.061,0,0,0-.792-.2,4.953,4.953,0,0,0-2.575.792,2.493,2.493,0,0,0-.891,1.98,2.535,2.535,0,0,0,.792,1.881,2.705,2.705,0,0,0,1.881.792h0v.4a1.271,1.271,0,0,0,.4.99,1.442,1.442,0,0,0,.891.594V10.4c0,.1,0,.1.1.2S6.634,10.694,6.733,10.694Z" transform="translate(0)"/></g></g></svg>