<?xml version="1.0" encoding="UTF-8" standalone="no"?>
<!-- Generator: Adobe Illustrator 22.0.1, SVG Export Plug-In . SVG Version: 6.00 Build 0)  -->

<svg
   xmlns:dc="http://purl.org/dc/elements/1.1/"
   xmlns:cc="http://creativecommons.org/ns#"
   xmlns:rdf="http://www.w3.org/1999/02/22-rdf-syntax-ns#"
   xmlns:svg="http://www.w3.org/2000/svg"
   xmlns="http://www.w3.org/2000/svg"
   xmlns:sodipodi="http://sodipodi.sourceforge.net/DTD/sodipodi-0.dtd"
   xmlns:inkscape="http://www.inkscape.org/namespaces/inkscape"
   version="1.1"
   id="Livello_1"
   x="0px"
   y="0px"
   viewBox="0 0 491.87557 476.92832"
   xml:space="preserve"
   inkscape:version="0.91 r13725"
   sodipodi:docname="logo.svg"
   width="491.87558"
   height="476.92831"><metadata
     id="metadata29"><rdf:RDF><cc:Work
         rdf:about=""><dc:format>image/svg+xml</dc:format><dc:type
           rdf:resource="http://purl.org/dc/dcmitype/StillImage" /><dc:title></dc:title></cc:Work></rdf:RDF></metadata><defs
     id="defs27" /><sodipodi:namedview
     pagecolor="#ffffff"
     bordercolor="#666666"
     borderopacity="1"
     objecttolerance="10"
     gridtolerance="10"
     guidetolerance="10"
     inkscape:pageopacity="0"
     inkscape:pageshadow="2"
     inkscape:window-width="1920"
     inkscape:window-height="1027"
     id="namedview25"
     showgrid="false"
     inkscape:zoom="0.65"
     inkscape:cx="571.39293"
     inkscape:cy="226.09115"
     inkscape:window-x="0"
     inkscape:window-y="0"
     inkscape:window-maximized="1"
     inkscape:current-layer="Livello_1"
     fit-margin-top="0"
     fit-margin-left="0"
     fit-margin-right="0"
     fit-margin-bottom="0" /><style
     type="text/css"
     id="style3">
	.st0{fill:#124564;}
	.st1{fill:#7C7D4D;}
	.st2{fill:#FAC66E;}
	.st3{fill:none;}
</style><g
     id="g3381"
     transform="translate(-602.31342,-20.562831)"><g
       id="g5"
       transform="translate(-230.11104,-13.956335)"><path
         style="fill:#124564"
         id="path7"
         d="m 1002.7,315.2 -54.1,166.9 c -2.2,6.8 -6.8,12 -11.3,12.9 l -83.6,16.3 c -3.9,0.8 -7.1,-1.7 -8.3,-6.4 L 833,459.2 c -1.4,-5.3 -0.2,-12.3 3.1,-17.9 l 234.8,-399 c 9,-15.3 22.3,-6.2 16.6,11.4 l -39.5,122"
         class="st0"
         inkscape:connector-curvature="0" /></g><path
       style="fill:#7c7d4d"
       id="path9"
       d="m 1094.189,453.14366 -341.40003,0 c -12.2,0.2 -18.2,-14.8 -9.3,-23.2 l 99.49999,-92.7 c 11.2,-10.4 27.9,-12.4 41.2,-4.9 l 210.00004,120.8"
       class="st1"
       inkscape:connector-curvature="0" /><path
       style="fill:#fac66e"
       id="path11"
       d="M 755.98897,396.94366 858.38896,95.243664 c 2.2,-6.6 8.3,-11.1 15.3,-11.3 l 177.60004,-4.5 c 15.2,-0.4 22.9,18.2 11.8,28.699996 l -307.10003,288.8"
       class="st2"
       inkscape:connector-curvature="0" /></g></svg>